<?xml version="1.0" standalone="no"?>
<!DOCTYPE svg PUBLIC "-//W3C//DTD SVG 1.1//EN" "http://www.w3.org/Graphics/SVG/1.1/DTD/svg11.dtd">
<svg xmlns="http://www.w3.org/2000/svg">
<defs >
<font id="ArchivoNarrow" horiz-adv-x="482" ><font-face
    font-family="Archivo Narrow"
    units-per-em="1000"
    panose-1="2 11 8 6 2 2 2 9 11 4"
    ascent="1035"
    descent="-312"
    alphabetic="0" />
<glyph unicode=" " glyph-name="space" horiz-adv-x="228" />
<glyph unicode="!" glyph-name="exclam" horiz-adv-x="273" d="M123 686H276L171 197H89L123 686ZM54 137H192L172 0H34L54 137Z" />
<glyph unicode="&quot;" glyph-name="quotedbl" horiz-adv-x="389" d="M84 539L105 686H227L206 539L163 407H84V539ZM265 539L286 686H408L387 539L344 407H265V539Z" />
<glyph unicode="#" glyph-name="numbersign" horiz-adv-x="456" d="M85 195H22V279H104L135 420H61V504H154L198 698H286L242 504H317L361 698H449L405 504H467V420H386L355 279H428V195H336L292 0H204L248 195H173L129 0H41L85 195ZM267 279L298 420H223L192 279H267Z" />
<glyph unicode="$" glyph-name="dollar" horiz-adv-x="456" d="M176 69Q105 77 65 112T24 203Q24 225 30 250H144Q140 233 140 225Q140 173 189 161L209 303Q166 321 139 336T92 380T72 453Q72 526 123 569T254 616L269 723H318L303 615Q377 606 409 561T442 451H329Q329
480 321 498T290 523L271 393Q321 374 351 359T401 315T422 244Q422 156 366 113T225 67L209 -49H160L176 69ZM241 525Q218 520 203 505T188 467Q188 434 225 414L241 525ZM265 160T284 175T303 219Q303 240 291 254T256 282L238 157Q265 160 284 175Z" />
<glyph unicode="%" glyph-name="percent" horiz-adv-x="729" d="M132 337T100 365T68 461Q68 584 112 641T225 698Q288 698 320 670T352 573Q352 479 318 408T195 337Q132 337 100 365ZM593 686H679L163 0H78L593 686ZM223 410T237 435T258 510Q263 549 263 569Q263
596 255 610T225 625Q197 625 184 600T162 525Q156 488 156 466Q156 410 195 410Q223 410 237 435ZM469 -12T437 16T405 112Q405 235 449 292T562 349Q625 349 657 321T689 224Q689 130 655 59T532 -12Q469 -12 437 16ZM560 61T574 86T595 161Q600 200 600 220Q600
247 592 261T562 276Q534 276 521 251T499 176Q493 139 493 117Q493 61 532 61Q560 61 574 86Z" />
<glyph unicode="&amp;" glyph-name="ampersand" horiz-adv-x="592" d="M529 219T455 126L524 0H392L369 43Q288 -13 204 -13Q119 -13 75 35T30 155Q30 226 71 295T184 398Q162 454 162 504Q162 558 184 602T249 672T349 698Q421 698 457 660T494 563Q494 498 452
437T338 343L404 221Q435 280 451 359H559Q529 219 455 126ZM308 597T293 573T277 510Q277 469 291 430Q328 445 352 480T377 551Q377 572 368 584T339 597Q308 597 293 573ZM275 89T325 126L230 306Q194 288 173 247T151 166Q151 132 167 111T217 89Q275 89 325
126Z" />
<glyph unicode="&apos;" glyph-name="quotesingle" horiz-adv-x="195" d="M84 539L105 686H227L206 539L163 407H84V539Z" />
<glyph unicode="(" glyph-name="parenleft" horiz-adv-x="273" d="M82 -85T58 2T34 183Q34 232 42 288Q59 411 114 527T254 735H333Q249 613 197 465T145 178Q145 89 162 2T208 -157H129Q82 -85 58 2Z" />
<glyph unicode=")" glyph-name="parenright" horiz-adv-x="273" d="M37 -35T89 113T141 400Q141 489 124 576T78 735H157Q204 663 228 576T252 395Q252 346 244 290Q227 167 172 51T32 -157H-47Q37 -35 89 113Z" />
<glyph unicode="*" glyph-name="asterisk" horiz-adv-x="319" d="M168 483L76 423L47 491L145 533L59 577L107 643L183 584L187 686H265L241 585L333 643L363 577L263 533L351 491L302 423L226 483L222 381H144L168 483Z" />
<glyph unicode="+" glyph-name="plus" horiz-adv-x="479" d="M179 203H25L40 307H194L222 511H325L297 307H452L437 203H282L254 0H151L179 203Z" />
<glyph unicode="," glyph-name="comma" horiz-adv-x="228" d="M67 0H16L35 137H173L156 12L66 -156H-6L67 0Z" />
<glyph unicode="-" glyph-name="hyphen" horiz-adv-x="273" d="M30 329H271L254 211H13L30 329Z" />
<glyph unicode="." glyph-name="period" horiz-adv-x="228" d="M34 137H172L153 0H15L34 137Z" />
<glyph unicode="/" glyph-name="slash" horiz-adv-x="228" d="M210 735H295L43 -49H-42L210 735Z" />
<glyph unicode="0" glyph-name="zero" horiz-adv-x="456" d="M118 -12T76 35T33 199Q33 259 45 343Q63 479 95 557T172 666T280 698Q363 698 405 650T448 485Q448 419 437 343Q419 207 386 130T308 20T201 -12Q118 -12 76 35ZM234 89T253 112T284 181T308 308Q320
396 324 435T329 500Q329 550 317 573T276 597Q246 597 227 574T196 504T173 378L167 334Q151 234 151 177Q151 131 163 110T205 89Q234 89 253 112Z" />
<glyph unicode="1" glyph-name="one" horiz-adv-x="456" d="M11 101H163L224 529H70L81 609Q126 614 191 635T306 686H364L282 101H422L408 0H-2L11 101Z" />
<glyph unicode="2" glyph-name="two" horiz-adv-x="456" d="M0 24Q15 119 92 211Q117 241 148 272T189 313Q238 360 266 391T312 458T331 535Q331 560 318 577T276 595Q241 595 221 566T194 491L189 450H68Q68 517 93 574T168 664T287 698Q363 698 409 662T457
550Q457 480 426 417T352 307T246 200Q234 188 221 176T193 148Q173 127 164 112H400L384 0H-4L0 24Z" />
<glyph unicode="3" glyph-name="three" horiz-adv-x="456" d="M119 -12T72 32T24 154Q24 172 29 212H153Q148 173 148 163Q148 127 164 108T211 89Q251 89 276 122T301 221Q301 298 233 298H200L214 399H249Q270 399 289 414T321 460T333 533Q333 597 282 597Q250
597 230 570T202 482H79Q85 551 113 599T186 673T284 698Q365 698 411 658T458 542Q458 471 428 427T346 356V352Q382 337 403 304T425 220Q425 150 396 98T318 17T209 -12Q119 -12 72 32Z" />
<glyph unicode="4" glyph-name="four" horiz-adv-x="456" d="M247 155H3L17 251Q133 418 247 698H369Q340 616 292 526T195 362T119 256H261L278 378Q303 417 329 470T370 564H423L379 256H449L435 155H366L344 0H225L247 155Z" />
<glyph unicode="5" glyph-name="five" horiz-adv-x="456" d="M120 -12T72 35T24 168Q24 189 27 213H151Q148 194 148 177Q148 135 164 112T210 88Q234 88 257 108T294 167T308 260Q308 302 293 325T253 348Q205 348 172 290L59 306L135 686H464L448 574H224L191
412Q238 446 293 446Q356 446 394 403T432 278Q432 189 402 123T321 23T205 -12Q120 -12 72 35Z" />
<glyph unicode="6" glyph-name="six" horiz-adv-x="456" d="M128 -12T83 37T38 202Q38 254 47 323Q74 528 132 613T284 698Q366 698 406 653T446 530Q446 500 442 475H320Q324 500 324 526Q324 562 313 579T277 597Q247 597 229 571T200 500T177 377Q197 402 227
416T289 431Q357 431 392 386T427 264Q427 182 399 120T322 23T215 -12Q128 -12 83 37ZM247 89T266 117T294 182T303 250Q303 289 290 311T248 333Q208 333 183 288T158 173Q158 134 172 112T214 89Q247 89 266 117Z" />
<glyph unicode="7" glyph-name="seven" horiz-adv-x="456" d="M91 154T170 306T351 574H74L90 686H496L484 605Q244 297 211 51Q211 51 208 24L205 0H69Q91 154 170 306Z" />
<glyph unicode="8" glyph-name="eight" horiz-adv-x="456" d="M110 -12T66 32T21 149Q21 214 49 270T134 352Q107 371 94 401T80 470Q80 532 104 584T173 667T280 698Q364 698 406 652T449 538Q449 484 423 433T351 352Q418 315 418 225Q418 160 394 106T320 20T202
-12Q110 -12 66 32ZM283 400T305 434T328 531Q328 564 315 581T277 598Q238 598 219 558T199 469Q199 400 250 400Q283 400 305 434ZM246 88T271 124T296 225Q296 262 281 281T236 301Q190 301 168 259T145 163Q145 126 161 107T206 88Q246 88 271 124Z" />
<glyph unicode="9" glyph-name="nine" horiz-adv-x="456" d="M118 -12T78 33T38 156Q38 186 42 211H164Q160 186 160 160Q160 124 171 107T207 89Q237 89 255 115T284 186T307 309Q287 284 257 270T195 255Q127 255 92 300T57 422Q57 504 85 566T162 663T269 698Q356
698 401 649T446 484Q446 432 437 363Q410 158 352 73T200 -12Q118 -12 78 33ZM276 353T301 398T326 513Q326 552 312 574T270 597Q237 597 218 569T190 504T181 436Q181 397 194 375T236 353Q276 353 301 398Z" />
<glyph unicode=":" glyph-name="colon" horiz-adv-x="273" d="M96 526H234L215 389H77L96 526ZM42 137H180L161 0H23L42 137Z" />
<glyph unicode=";" glyph-name="semicolon" horiz-adv-x="273" d="M102 526H240L221 389H83L102 526ZM78 0H27L46 137H184L167 12L77 -156H5L78 0Z" />
<glyph unicode="&lt;" glyph-name="less" horiz-adv-x="479" d="M25 197L42 324L483 531L467 413L135 261L424 109L408 -9L25 197Z" />
<glyph unicode="=" glyph-name="equal" horiz-adv-x="479" d="M55 412H467L452 308H40L55 412ZM25 199H437L422 96H10L25 199Z" />
<glyph unicode="&gt;" glyph-name="greater" horiz-adv-x="479" d="M12 109L345 261L55 413L71 531L454 324L437 197L-3 -9L12 109Z" />
<glyph unicode="?" glyph-name="question" horiz-adv-x="501" d="M187 240Q192 276 211 304T265 372Q305 417 324 449T344 524Q344 550 330 570T281 591Q235 591 214 551T192 459H67Q67 524 93 578T171 665T294 698Q379 698 428 657T477 548Q477 498 464 461T431
399T381 341Q348 306 332 282T310 225L306 197H181L187 240ZM168 137H305L285 0H148L168 137Z" />
<glyph unicode="@" glyph-name="at" horiz-adv-x="800" d="M33 -154T33 194Q33 357 84 470T231 640T458 698Q587 698 658 658T757 546T784 369Q784 283 760 204T685 73T558 22Q513 22 487 38T449 77Q431 50 404 36T351 22Q289 22 256 65T222 191Q222 300 247 374T314
485T403 521Q475 521 502 453L521 510H605L601 481Q551 154 551 149Q551 128 560 119T590 109Q635 109 665 158Q690 197 703 256T716 368Q716 463 690 522Q665 577 613 605T475 633Q303 633 202 530T101 196Q101 -89 379 -89Q423 -89 457 -83T511 -69L503 -136Q489
-141 455 -147T388 -154Q33 -154 33 194ZM429 115T450 189T471 340Q471 384 461 406T423 428Q389 428 368 387T339 294T330 205Q330 160 341 138T379 115Q429 115 450 189Z" />
<glyph unicode="A" glyph-name="A" horiz-adv-x="592" d="M281 686H428L551 0H421L399 135H154L95 0H-33L281 686ZM380 249L350 437Q342 486 338 570H334Q309 484 288 437L205 249H380Z" />
<glyph unicode="B" glyph-name="B" horiz-adv-x="592" d="M124 686H409Q486 686 533 644T581 534Q581 471 544 425T454 360L453 356Q497 341 524 301T551 204Q551 143 520 97T436 25T327 0H28L124 686ZM345 408Q392 408 420 436T448 503Q448 537 430 554T377 572H235L212
408H345ZM321 114Q365 114 393 141T422 218Q422 253 401 274T337 295H196L170 114H321Z" />
<glyph unicode="C" glyph-name="C" horiz-adv-x="592" d="M169 -12T107 53T45 250Q45 364 76 466T177 633T353 698Q464 698 526 634T589 444V431H459V449Q459 515 431 551T353 588Q285 588 245 535T190 407T174 255Q174 179 202 139T287 98Q350 98 388 141T441
254H566Q541 137 470 63T284 -12Q169 -12 107 53Z" />
<glyph unicode="D" glyph-name="D" horiz-adv-x="592" d="M124 686H335Q451 686 513 620T576 426Q576 324 544 227T441 65T264 0H28L124 686ZM253 114Q324 114 367 161T429 278T447 417Q447 493 413 532T317 572H235L171 114H253Z" />
<glyph unicode="E" glyph-name="E" horiz-adv-x="547" d="M124 686H556L540 572H235L212 408H474L458 294H196L170 114H482L466 0H28L124 686Z" />
<glyph unicode="F" glyph-name="F" horiz-adv-x="501" d="M125 686H523L508 572H235L211 399H443L427 285H195L155 0H28L125 686Z" />
<glyph unicode="G" glyph-name="G" horiz-adv-x="638" d="M322 373H604L552 0H470L458 76Q383 -12 269 -12Q161 -12 103 53T45 250Q45 360 78 462T183 631T367 698Q483 698 548 635T613 447H483V456Q483 520 454 554T372 588Q297 588 253 535T192 407T174 255Q174
179 204 139T297 98Q366 98 406 142T459 263H306L322 373Z" />
<glyph unicode="H" glyph-name="H" horiz-adv-x="592" d="M122 686H249L210 408H424L462 686H589L493 0H366L408 294H194L153 0H26L122 686Z" />
<glyph unicode="I" glyph-name="I" horiz-adv-x="228" d="M114 686H241L145 0H18L114 686Z" />
<glyph unicode="J" glyph-name="J" horiz-adv-x="456" d="M98 -12T50 24T2 129Q2 144 12 216H133Q126 168 126 158Q126 98 188 98Q247 98 258 173L330 686H457L383 163Q371 78 321 33T188 -12Q98 -12 50 24Z" />
<glyph unicode="K" glyph-name="K" horiz-adv-x="592" d="M124 686H252L204 348L492 686H642L399 405L552 0H412L304 307L180 175L156 0H28L124 686Z" />
<glyph unicode="L" glyph-name="L" horiz-adv-x="501" d="M124 686H251L172 120H459L442 0H28L124 686Z" />
<glyph unicode="M" glyph-name="M" horiz-adv-x="683" d="M117 686H294L325 308Q329 265 332 153H336Q367 274 381 312L516 686H689L593 0H476L537 437Q541 466 557 547H553L515 441L358 0H248L213 440L205 547H201Q195 463 191 437L129 0H21L117 686Z" />
<glyph unicode="N" glyph-name="N" horiz-adv-x="592" d="M124 686H236L393 308Q400 292 415 244L418 247L425 304L478 686H591L495 0H382L225 378Q219 391 203 442L199 439Q196 399 193 382L140 0H28L124 686Z" />
<glyph unicode="O" glyph-name="O" horiz-adv-x="638" d="M173 -12T107 53T41 250Q41 360 74 462T179 631T364 698Q487 698 553 633T619 435Q619 326 586 224T479 55T295 -12Q173 -12 107 53ZM365 98T409 151T471 279T489 430Q489 506 459 547T369 588Q294 588
250 535T188 407T170 255Q170 179 200 139T290 98Q365 98 409 151Z" />
<glyph unicode="P" glyph-name="P" horiz-adv-x="547" d="M124 686H361Q455 686 503 638T552 509Q552 438 522 383T440 297T323 266H192L154 0H28L124 686ZM316 379Q363 379 392 408T421 489Q421 527 399 549T338 572H235L208 379H316Z" />
<glyph unicode="Q" glyph-name="Q" horiz-adv-x="638" d="M296 -12Q175 -11 110 54T45 250Q45 360 78 462T183 631T368 698Q491 698 557 633T623 435Q623 349 602 266T536 115T423 14L535 -124H380L296 -12ZM369 98T413 151T475 279T493 430Q493 506 463 547T373
588Q298 588 254 535T192 407T174 255Q174 179 204 139T294 98Q369 98 413 151Z" />
<glyph unicode="R" glyph-name="R" horiz-adv-x="592" d="M124 686H393Q490 686 540 641T590 517Q590 443 551 389T445 311L537 0H400L320 286H194L155 0H28L124 686ZM345 399Q395 399 424 425T453 499Q453 534 434 553T374 572H235L210 399H345Z" />
<glyph unicode="S" glyph-name="S" horiz-adv-x="547" d="M204 -12T152 7T65 67T31 172Q31 208 36 233H168Q163 213 163 185Q163 150 185 124T267 98Q318 98 347 124T376 187Q376 217 360 238T319 274T250 308Q197 332 165 352T109 406T86 491Q86 545 109 592T185
668T318 698Q438 698 485 640T532 484H403Q403 530 380 558T311 587Q280 587 250 573T220 516Q220 480 247 460T333 415Q389 391 424 370T484 311T509 213Q509 143 477 92T387 15T259 -12Q204 -12 152 7Z" />
<glyph unicode="T" glyph-name="T" horiz-adv-x="501" d="M233 572H64L80 686H544L528 572H359L279 0H153L233 572Z" />
<glyph unicode="U" glyph-name="U" horiz-adv-x="592" d="M175 -12T117 36T59 176Q59 221 127 686H254Q187 226 187 199Q187 150 211 124T282 98Q332 98 362 131T402 227L466 686H593L528 223Q512 108 448 48T282 -12Q175 -12 117 36Z" />
<glyph unicode="V" glyph-name="V" horiz-adv-x="547" d="M67 686H197L268 198H272L480 686H608L305 0H178L67 686Z" />
<glyph unicode="W" glyph-name="W" horiz-adv-x="774" d="M67 686H193L210 266L214 168H218Q235 236 244 264L384 686H529L547 264L551 168H555Q571 232 581 264L720 686H832L596 0H461L430 437L429 475L430 534H425Q408 465 399 437L253 0H118L67 686Z" />
<glyph unicode="X" glyph-name="X" horiz-adv-x="547" d="M220 358L84 686H224L306 477H310L447 686H589L360 358L511 0H369L274 238H270L110 0H-29L220 358Z" />
<glyph unicode="Y" glyph-name="Y" horiz-adv-x="547" d="M215 259L67 686H197L296 385H300L479 686H608L342 259L305 0H179L215 259Z" />
<glyph unicode="Z" glyph-name="Z" horiz-adv-x="501" d="M-8 49L335 572H85L101 686H529L525 636L181 114H459L443 0H-12L-8 49Z" />
<glyph unicode="[" glyph-name="bracketleft" horiz-adv-x="273" d="M118 735H317L304 640H221L122 -66H205L192 -161H-6L118 735Z" />
<glyph unicode="\" glyph-name="backslash" horiz-adv-x="228" d="M58 735H139L197 -49H115L58 735Z" />
<glyph unicode="]" glyph-name="bracketright" horiz-adv-x="273" d="M-13 -66H69L168 640H85L98 735H297L172 -161H-26L-13 -66Z" />
<glyph unicode="^" glyph-name="asciicircum" horiz-adv-x="479" d="M215 686H322L424 294H314L251 564L119 294H4L215 686Z" />
<glyph unicode="_" glyph-name="underscore" horiz-adv-x="456" d="M-36 -63H419L410 -132H-44L-36 -63Z" />
<glyph unicode="`" glyph-name="grave" horiz-adv-x="273" d="M86 720L88 723H208L275 591H176L86 720Z" />
<glyph unicode="a" glyph-name="a" horiz-adv-x="456" d="M96 -12T59 35T22 174Q22 295 50 377T123 498T221 538Q301 538 331 463L351 526H444Q382 127 382 117Q382 89 406 89H424L412 4Q385 -12 353 -12Q320 -12 299 6T270 58Q252 23 223 6T164 -12Q96 -12 59
35ZM233 91T256 133T288 233T297 338Q297 387 285 411T244 435Q206 435 183 390T151 288T141 190Q141 91 195 91Q233 91 256 133Z" />
<glyph unicode="b" glyph-name="b" horiz-adv-x="501" d="M171 -12T140 70L116 0H23L123 723H242L207 474Q229 504 262 521T332 538Q395 538 431 491T467 349Q467 270 448 188T382 47T262 -12Q171 -12 140 70ZM298 97T321 176T345 340Q345 385 331 407T283 429Q240
429 215 388T180 291T170 188Q170 97 235 97Q298 97 321 176Z" />
<glyph unicode="c" glyph-name="c" horiz-adv-x="456" d="M119 -12T78 33T36 172Q36 325 87 431T269 538Q354 538 393 491T432 343V328H310V343Q310 391 299 414T260 437Q221 437 199 389T167 282T158 191Q158 138 169 114T212 89Q242 89 263 118T294 195H413Q392
100 344 44T203 -12Q119 -12 78 33Z" />
<glyph unicode="d" glyph-name="d" horiz-adv-x="501" d="M111 -12T74 35T36 174Q36 295 65 377T141 498T242 538Q322 538 353 469L390 723H508L408 0H311V76Q259 -12 179 -12Q111 -12 74 35ZM263 97T288 138T322 235T332 338Q332 383 318 406T271 429Q206 429
182 350T157 186Q157 141 171 119T220 97Q263 97 288 138Z" />
<glyph unicode="e" glyph-name="e" horiz-adv-x="456" d="M117 -12T75 33T33 172Q33 327 85 432T266 538Q429 538 429 359Q429 291 418 233H155Q153 212 153 187Q153 135 166 110T208 85Q236 85 255 112T284 182H407Q363 -12 203 -12Q117 -12 75 33ZM306 320Q308
349 308 359Q308 400 297 420T259 441Q224 441 202 407T168 320H306Z" />
<glyph unicode="f" glyph-name="f" horiz-adv-x="273" d="M-20 -182T-44 -179T-85 -170L-72 -81H-28Q17 -81 23 -33L83 425H31L45 526H97L106 590Q115 650 149 690T249 731Q269 731 293 728T333 719L320 630H272Q252 630 240 619T224 587L216 526H306L292 425H202L140
-41Q132 -101 99 -141T1 -182Q-20 -182 -44 -179Z" />
<glyph unicode="g" glyph-name="g" horiz-adv-x="501" d="M98 -182T53 -137T7 -24H129Q129 -81 192 -81Q276 -81 292 25L300 79Q278 50 247 32T181 14Q117 14 77 57T36 187Q36 263 55 344T121 481T241 538Q283 538 314 518T363 456L386 526H480L413 49Q396 -72
340 -127T184 -182Q98 -182 53 -137ZM264 117T288 155T323 244T333 338Q333 429 268 429Q205 429 182 353T158 196Q158 157 174 137T223 117Q264 117 288 155Z" />
<glyph unicode="h" glyph-name="h" horiz-adv-x="501" d="M123 723H242L206 471Q261 538 336 538Q398 538 430 503T463 403Q463 391 460 368T450 293L410 0H292Q341 353 341 363Q341 398 328 413T283 429Q247 429 220 399T186 316L142 0H23L123 723Z" />
<glyph unicode="i" glyph-name="i" horiz-adv-x="228" d="M96 526H215L142 0H23L96 526ZM121 723H242L226 608H105L121 723Z" />
<glyph unicode="j" glyph-name="j" horiz-adv-x="228" d="M-25 -182T-50 -179T-90 -170L-78 -81H-35Q10 -81 18 -33L95 526H214L135 -41Q126 -102 94 -142T-4 -182Q-25 -182 -50 -179ZM118 723H239L223 608H102L118 723Z" />
<glyph unicode="k" glyph-name="k" horiz-adv-x="456" d="M123 723H242L187 329L353 526H488L304 310L422 0H296L220 215L164 160L142 0H23L123 723Z" />
<glyph unicode="l" glyph-name="l" horiz-adv-x="228" d="M122 723H241L141 0H22L122 723Z" />
<glyph unicode="m" glyph-name="m" horiz-adv-x="729" d="M98 526H195V458Q247 538 327 538Q372 538 400 516T438 452Q464 492 497 515T576 538Q633 538 663 503T693 403Q693 389 689 354T672 234Q666 185 658 126T640 0H521L554 237Q564 304 567 332T571 371Q571
429 522 429Q491 429 466 399T434 316L392 0H273L306 240Q315 305 318 333T322 371Q322 429 274 429Q242 429 218 400T186 316L143 0H24L98 526Z" />
<glyph unicode="n" glyph-name="n" horiz-adv-x="501" d="M96 526H193V456Q248 538 336 538Q398 538 430 503T463 403Q463 391 460 368T450 293L410 0H292L330 279Q341 360 341 363Q341 398 328 413T283 429Q247 429 220 399T185 316L142 0H23L96 526Z" />
<glyph unicode="o" glyph-name="o" horiz-adv-x="501" d="M36 -12T36 180Q36 325 90 431T279 538Q465 538 465 343Q465 198 411 93T222 -12Q36 -12 36 180ZM296 89T319 177T342 343Q342 437 275 437Q205 437 182 349T159 183Q159 136 175 113T226 89Q296 89 319 177Z" />
<glyph unicode="p" glyph-name="p" horiz-adv-x="501" d="M96 526H193V449Q243 538 325 538Q393 538 430 491T468 352Q468 231 439 149T363 28T262 -12Q183 -12 150 57L118 -172H0L96 526ZM300 97T323 176T347 340Q347 385 333 407T284 429Q241 429 216 388T182
291T172 188Q172 143 187 120T237 97Q300 97 323 176Z" />
<glyph unicode="q" glyph-name="q" horiz-adv-x="501" d="M295 52Q274 22 241 5T171 -12Q108 -12 72 35T36 177Q36 256 55 338T121 479T241 538Q330 538 363 456L386 526H480L384 -172H265L295 52ZM263 97T288 138T323 235T333 338Q333 429 268 429Q205 429 182
350T158 186Q158 141 172 119T220 97Q263 97 288 138Z" />
<glyph unicode="r" glyph-name="r" horiz-adv-x="319" d="M96 526H193V446Q213 487 238 512T301 538Q330 538 349 530L334 414H296Q252 414 222 386T182 293L141 0H23L96 526Z" />
<glyph unicode="s" glyph-name="s" horiz-adv-x="456" d="M124 -12T73 24T22 124Q22 146 28 171H150Q146 154 146 146Q146 113 166 100T220 86Q245 86 265 99T285 140Q285 170 265 185T200 219Q158 236 133 251T89 296T70 374Q70 452 125 495T264 538Q354 538
393 492T432 372H311Q311 405 299 422T252 440Q228 440 211 426T194 388Q194 360 215 346T279 316Q320 301 347 286T393 242T412 165Q412 75 355 32T212 -12Q124 -12 73 24Z" />
<glyph unicode="t" glyph-name="t" horiz-adv-x="273" d="M92 -12T67 18T42 96Q42 120 87 425H34L48 526H101L141 674H241L219 526H295L281 425H206Q164 131 164 122Q164 89 200 89H233L221 0Q208 -5 187 -8T148 -12Q92 -12 67 18Z" />
<glyph unicode="u" glyph-name="u" horiz-adv-x="501" d="M103 -12T71 23T38 123Q38 135 41 158T51 233L91 526H209L171 247Q160 166 160 163Q160 128 173 113T218 97Q254 97 281 127T316 210L359 526H478L405 0H307V68Q250 -12 165 -12Q103 -12 71 23Z" />
<glyph unicode="v" glyph-name="v" horiz-adv-x="456" d="M44 526H163L200 300Q206 262 215 142H219Q256 256 275 300L372 526H493L254 0H133L44 526Z" />
<glyph unicode="w" glyph-name="w" horiz-adv-x="638" d="M42 526H155L173 309Q179 239 182 137H186Q202 234 227 308L302 526H422L435 307Q438 258 439 137H443Q472 250 492 307L566 526H673L474 0H356L339 251Q335 303 333 389H327Q320 306 302 252L216 0H97L42 526Z" />
<glyph unicode="x" glyph-name="x" horiz-adv-x="456" d="M170 272L59 526H188L246 377H251L350 526H479L297 272L415 0H286L221 169H216L102 0H-25L170 272Z" />
<glyph unicode="y" glyph-name="y" horiz-adv-x="456" d="M37 -182T15 -179T-7 -173L4 -81H58Q85 -81 109 -61T149 0L49 526H169L213 279Q220 241 227 142H231Q258 235 275 278L374 526H492L281 27Q239 -70 188 -126T68 -182Q37 -182 15 -179Z" />
<glyph unicode="z" glyph-name="z" horiz-adv-x="410" d="M-8 51L241 425H54L68 526H417L413 476L162 101H368L354 0H-12L-8 51Z" />
<glyph unicode="{" glyph-name="braceleft" horiz-adv-x="319" d="M152 -159T104 -134T56 -40Q56 -31 58 -11Q81 148 84 169L87 194Q87 218 68 229T17 242L30 334Q61 334 85 348T115 394L143 587Q155 673 211 704T360 735L350 658Q317 658 292 645T262 597Q256
549 242 484L227 401Q218 347 189 320T104 293L103 283Q154 283 175 261T197 195Q197 177 184 64Q174 -22 174 -32Q174 -82 245 -82L235 -159Q152 -159 104 -134Z" />
<glyph unicode="|" glyph-name="bar" horiz-adv-x="230" d="M70 723H160V-173H70V723Z" />
<glyph unicode="}" glyph-name="braceright" horiz-adv-x="319" d="M-18 -82Q15 -82 40 -69T70 -21Q76 27 90 92L105 175Q114 229 143 256T228 283L229 293Q178 293 157 315T135 381Q135 399 148 512Q158 598 158 608Q158 658 87 658L97 735Q180 735 228 710T276
616Q276 607 274 587Q252 428 248 407L245 382Q245 358 264 347T315 334L302 242Q271 242 247 228T217 182L189 -11Q177 -97 121 -128T-28 -159L-18 -82Z" />
<glyph unicode="~" glyph-name="asciitilde" horiz-adv-x="479" d="M37 317Q60 348 95 369T170 390Q191 390 209 383T254 360Q280 345 299 337T341 329Q376 329 411 350T474 402L457 282Q434 251 399 230T324 209Q303 209 285 216T240 239Q214 254 195 262T153
270Q118 270 83 249T20 197L37 317Z" />
<glyph unicode="&#xa0;" glyph-name="uni00A0" horiz-adv-x="228" />
<glyph unicode="&#xa1;" glyph-name="exclamdown" horiz-adv-x="273" d="M113 526H251L231 389H93L113 526ZM112 329H194L161 -160H8L112 329Z" />
<glyph unicode="&#xa2;" glyph-name="cent" horiz-adv-x="456" d="M172 70Q36 85 36 252Q36 399 83 503T249 617L264 723H312L297 616Q367 609 399 562T432 423V408H318V423Q318 465 310 488T283 520L234 165Q258 174 275 204T302 275H413Q392 184 348 129T220
68L204 -49H156L172 70ZM235 519Q203 504 184 454T158 352T150 271Q150 225 158 200T186 165L235 519Z" />
<glyph unicode="&#xa3;" glyph-name="sterling" horiz-adv-x="456" d="M8 108H58L83 288H21L35 389H96L112 499Q126 598 176 648T309 698Q388 698 431 659T474 545Q474 525 469 491H351Q357 531 357 538Q357 567 343 582T304 597Q276 597 258 579T235 525L216
389H335L321 288H201L166 108H409L393 0H-7L8 108Z" />
<glyph unicode="&#xa4;" glyph-name="currency" horiz-adv-x="456" d="M160 108T103 155L61 113L0 174L50 224Q22 277 22 342Q22 406 49 458L0 508L60 570L102 528Q159 577 228 577Q262 577 294 564T353 528L395 570L455 508L406 459Q434 405 434 342Q434 279
405 223L455 174L394 113L352 155Q295 108 228 108Q160 108 103 155ZM261 198T288 217T332 270T349 342Q349 382 333 415T289 467T228 487Q195 487 167 468T123 415T106 342Q106 303 122 270T167 218T228 198Q261 198 288 217Z" />
<glyph unicode="&#xa5;" glyph-name="yen" horiz-adv-x="456" d="M157 153H18L29 234H167L177 304H39L50 385H154L69 686H196L255 423H259L388 686H512L342 385H446L435 303H297L287 234H425L414 153H276L254 0H135L157 153Z" />
<glyph unicode="&#xa6;" glyph-name="brokenbar" horiz-adv-x="230" d="M70 723H160V351H70V723ZM70 199H160V-173H70V199Z" />
<glyph unicode="&#xa7;" glyph-name="section" horiz-adv-x="456" d="M101 -182T55 -149T8 -59Q8 -47 10 -33T13 -16H134Q132 -28 132 -34Q132 -59 146 -71T187 -84Q217 -84 235 -66T253 -19Q253 17 230 40T160 90Q120 114 96 133T54 183T36 259Q36 301 58 341T122
411Q87 449 87 509Q87 600 144 649T287 698Q361 698 408 666T455 576Q455 564 453 549T450 532H329Q330 538 330 549Q330 575 316 587T276 600Q246 600 228 582T210 534Q210 509 222 490T252 458T303 425Q343 402 367 383T409 333T427 257Q427 214 405 174T341
105Q376 63 376 6Q376 -55 349 -97T277 -161T176 -182Q101 -182 55 -149ZM304 192T304 230Q304 270 281 294T208 347L188 359Q159 327 159 285Q159 245 182 221T255 168L274 156Q304 192 304 230Z" />
<glyph unicode="&#xa8;" glyph-name="dieresis" horiz-adv-x="273" d="M84 723H184L169 614H70L84 723ZM259 723H359L344 614H244L259 723Z" />
<glyph unicode="&#xa9;" glyph-name="copyright" horiz-adv-x="604" d="M214 -12T150 31T51 155T16 343Q16 451 50 531T149 654T302 698Q390 698 454 655T553 531T588 343Q588 235 554 155T455 32T302 -12Q214 -12 150 31ZM373 43T425 79T504 184T532 343Q532
434 505 502T425 606T302 643Q231 643 179 607T100 502T72 343Q72 252 99 184T179 80T302 43Q373 43 425 79ZM227 134T185 186T143 343Q143 448 185 500T304 553Q371 553 412 514T453 395H366Q366 436 350 457T304 478Q268 478 250 447T231 358V329Q231 272 250
241T307 209Q336 209 352 229T369 291H453Q453 214 412 174T304 134Q227 134 185 186Z" />
<glyph unicode="&#xaa;" glyph-name="ordfeminine" horiz-adv-x="303" d="M120 362T95 394T70 487Q70 568 89 623T138 705T204 732Q257 732 278 682L305 724H354Q312 456 312 449Q312 430 328 430H341L333 373Q313 362 293 362Q248 362 237 409Q224 386 205 374T166
362Q120 362 95 394ZM223 431T239 486T255 597Q255 630 247 646T219 663Q194 663 179 633T157 563T150 498Q150 431 186 431Q223 431 239 486Z" />
<glyph unicode="&#xab;" glyph-name="guillemotleft" horiz-adv-x="456" d="M28 326L188 526H283L147 326L226 126H135L28 326ZM211 326L371 526H466L330 326L409 126H318L211 326Z" />
<glyph unicode="&#xac;" glyph-name="logicalnot" horiz-adv-x="479" d="M345 350H40L56 463H472L433 187H322L345 350Z" />
<glyph unicode="&#xad;" glyph-name="uni00AD" horiz-adv-x="273" d="M30 329H271L254 211H13L30 329Z" />
<glyph unicode="&#xae;" glyph-name="registered" horiz-adv-x="604" d="M214 -12T150 31T51 155T16 343Q16 451 50 531T149 654T302 698Q390 698 454 655T553 531T588 343Q588 235 554 155T455 32T302 -12Q214 -12 150 31ZM373 43T425 79T504 184T532 343Q532
434 505 502T425 606T302 643Q231 643 179 607T100 502T72 343Q72 252 99 184T179 80T302 43Q373 43 425 79ZM173 546H331Q380 546 412 512T444 421Q444 385 431 359T396 318L470 140H384L323 292H259V140H173V546ZM303 362Q356 362 356 418Q356 468 303 468H259V362H303Z"
/>
<glyph unicode="&#xaf;" glyph-name="overscore" horiz-adv-x="273" d="M15 686H270L257 599H2L15 686Z" />
<glyph unicode="&#xb0;" glyph-name="degree" horiz-adv-x="400" d="M159 414T127 433T75 484T56 556Q56 595 75 627T126 679T198 698Q237 698 269 679T321 628T340 556Q340 517 321 485T270 433T198 414Q159 414 127 433ZM229 482T250 503T271 556Q271 587 250
608T198 629Q167 629 146 608T124 556Q124 525 145 504T198 482Q229 482 250 503Z" />
<glyph unicode="&#xb1;" glyph-name="plusminus" horiz-adv-x="549" d="M224 317H70L85 421H239L263 595H366L342 421H497L482 317H327L303 144H200L224 317ZM40 103H452L438 0H26L40 103Z" />
<glyph unicode="&#xb2;" glyph-name="uni00B2" horiz-adv-x="273" d="M53 449Q58 488 84 522T155 595Q200 635 216 658T232 706Q232 734 205 734Q189 734 178 721T164 688L160 663H87V674Q87 728 120 763T210 798Q257 798 282 775T308 713Q308 667 283 629T217
557Q172 518 164 499H284L275 434H51L53 449Z" />
<glyph unicode="&#xb3;" glyph-name="uni00B3" horiz-adv-x="273" d="M110 428T83 450T56 512Q56 528 58 536L60 547H135L133 534L132 525Q132 509 141 500T167 491Q189 491 204 507T219 546Q219 564 209 574T179 585H149L158 650H189Q208 650 221 667T235 707Q235
722 226 729T204 736Q188 736 176 725T162 697L159 677H85L88 702Q93 745 127 771T212 798Q258 798 284 779T311 720Q311 656 249 621Q293 599 293 549Q293 497 256 463T162 428Q110 428 83 450Z" />
<glyph unicode="&#xb4;" glyph-name="acute" horiz-adv-x="273" d="M226 723H346L347 720L239 591H140L226 723Z" />
<glyph unicode="&#xb5;" glyph-name="uni00B5" horiz-adv-x="501" d="M479 526L405 0H308L305 65Q283 30 244 9T168 -12Q145 -12 128 -3Q128 -81 113 -173H-7L91 526H211L164 190Q162 179 162 160Q162 128 175 113T218 97Q255 97 283 127T318 210L362 526H479Z" />
<glyph unicode="&#xb6;" glyph-name="paragraph" horiz-adv-x="456" d="M186 250Q122 258 83 308T44 431Q44 513 75 571T157 657T270 686H509L498 610H450L340 -173H259L369 610H316L206 -173H126L186 250Z" />
<glyph unicode="&#xb7;" glyph-name="middot" horiz-adv-x="228" d="M79 409H200L181 278H60L79 409Z" />
<glyph unicode="&#xb8;" glyph-name="cedilla" horiz-adv-x="273" d="M60 -182T23 -174L30 -125H101Q121 -125 131 -119T141 -95Q141 -77 110 -77H77L100 11H168L157 -33Q188 -35 207 -49T227 -90Q227 -141 192 -161T106 -182Q60 -182 23 -174Z" />
<glyph unicode="&#xb9;" glyph-name="uni00B9" horiz-adv-x="273" d="M77 502H146L173 697H100L107 746Q167 755 218 786H262L222 502H288L278 433H67L77 502Z" />
<glyph unicode="&#xba;" glyph-name="ordmasculine" horiz-adv-x="299" d="M55 363T55 492Q55 590 92 661T219 733Q344 733 344 602Q344 504 308 434T180 363Q55 363 55 492ZM230 431T245 490T261 602Q261 633 250 649T216 665Q169 665 154 606T138 494Q138 462
148 447T183 431Q230 431 245 490Z" />
<glyph unicode="&#xbb;" glyph-name="guillemotright" horiz-adv-x="456" d="M145 326L65 526H156L264 326L103 126H9L145 326ZM328 326L248 526H339L447 326L286 126H191L328 326Z" />
<glyph unicode="&#xbc;" glyph-name="onequarter" horiz-adv-x="683" d="M63 402H132L159 597H86L93 646Q153 655 204 686H248L208 402H274L264 333H53L63 402ZM576 698H642L149 -12H82L576 698ZM548 80H400L408 135Q479 235 527 365H606Q583 304 547 240T482
140H556L568 221Q589 260 607 307H652L628 140H661L653 80H620L609 0H537L548 80Z" />
<glyph unicode="&#xbd;" glyph-name="onehalf" horiz-adv-x="683" d="M63 402H132L159 597H86L93 646Q153 655 204 686H248L208 402H274L264 333H53L63 402ZM576 698H642L149 -12H82L576 698ZM402 15Q407 54 433 88T504 161Q549 201 565 224T581 272Q581 300 554
300Q538 300 527 287T513 254L509 229H436V240Q436 294 469 329T559 364Q606 364 631 341T657 279Q657 233 632 195T566 123Q521 84 513 65H633L624 0H400L402 15Z" />
<glyph unicode="&#xbe;" glyph-name="threequarters" horiz-adv-x="683" d="M96 328T69 350T42 412Q42 428 44 436L46 447H121L119 434L118 425Q118 409 127 400T153 391Q175 391 190 407T205 446Q205 464 195 474T165 485H135L144 550H175Q194 550 207 567T221
607Q221 622 212 629T190 636Q174 636 162 625T148 597L145 577H71L74 602Q79 645 113 671T198 698Q244 698 270 679T297 620Q297 556 235 521Q279 499 279 449Q279 397 242 363T148 328Q96 328 69 350ZM576 698H642L149 -12H82L576 698ZM548 80H400L408 135Q479
235 527 365H606Q583 304 547 240T482 140H556L568 221Q589 260 607 307H652L628 140H661L653 80H620L609 0H537L548 80Z" />
<glyph unicode="&#xbf;" glyph-name="questiondown" horiz-adv-x="501" d="M240 526H377L357 389H220L240 526ZM146 -172T97 -131T48 -22Q48 28 61 65T94 127T144 185Q177 220 193 244T215 301L219 329H344L338 286Q333 250 314 222T260 154Q220 109 201 77T181
2Q181 -24 195 -44T244 -65Q290 -65 311 -25T333 67H458Q458 2 432 -52T354 -139T231 -172Q146 -172 97 -131Z" />
<glyph unicode="&#xc0;" glyph-name="Agrave" horiz-adv-x="592" d="M281 686H428L551 0H421L399 135H154L95 0H-33L281 686ZM380 249L350 437Q342 486 338 570H334Q309 484 288 437L205 249H380ZM237 850L238 853H358L430 751H331L237 850Z" />
<glyph unicode="&#xc1;" glyph-name="Aacute" horiz-adv-x="592" d="M281 686H428L551 0H421L399 135H154L95 0H-33L281 686ZM380 249L350 437Q342 486 338 570H334Q309 484 288 437L205 249H380ZM367 853H497L498 850L396 751H287L367 853Z" />
<glyph unicode="&#xc2;" glyph-name="Acircumflex" horiz-adv-x="592" d="M281 686H428L551 0H421L399 135H154L95 0H-33L281 686ZM380 249L350 437Q342 486 338 570H334Q309 484 288 437L205 249H380ZM326 853H424L495 748H407L368 787L318 748H226L326 853Z" />
<glyph unicode="&#xc3;" glyph-name="Atilde" horiz-adv-x="592" d="M281 686H428L551 0H421L399 135H154L95 0H-33L281 686ZM380 249L350 437Q342 486 338 570H334Q309 484 288 437L205 249H380ZM215 800T242 828T313 857Q332 857 346 853T379 839Q407 824 428
824Q458 824 469 857H528Q521 804 494 776T423 747Q404 747 390 751T357 765Q329 780 308 780Q278 780 267 747H208Q215 800 242 828Z" />
<glyph unicode="&#xc4;" glyph-name="Adieresis" horiz-adv-x="592" d="M281 686H428L551 0H421L399 135H154L95 0H-33L281 686ZM380 249L350 437Q342 486 338 570H334Q309 484 288 437L205 249H380ZM242 883H342L326 774H226L242 883ZM417 883H517L501 774H401L417 883Z" />
<glyph unicode="&#xc5;" glyph-name="Aring" horiz-adv-x="592" d="M281 686H428L551 0H421L399 135H154L95 0H-33L281 686ZM380 249L350 437Q342 486 338 570H334Q309 484 288 437L205 249H380ZM321 721T297 744T273 803Q273 850 304 881T383 913Q419 913 443
889T467 830Q467 783 436 752T357 721Q321 721 297 744ZM384 775T398 789T412 823Q412 839 402 849T376 859Q356 859 342 845T328 811Q328 795 338 785T364 775Q384 775 398 789Z" />
<glyph unicode="&#xc6;" glyph-name="AE" horiz-adv-x="820" d="M303 686H831L815 572H468L485 408H749L733 294H496L514 114H757L741 0H397L385 135H145L78 0H-52L303 686ZM374 249L352 488L345 570H341Q318 483 295 437L201 249H374Z" />
<glyph unicode="&#xc7;" glyph-name="Ccedilla" horiz-adv-x="592" d="M459 431V449Q459 515 431 551T353 588Q285 588 245 535T190 407T174 255Q174 179 202 139T287 98Q350 98 388 141T441 254H566Q541 143 476 70T306 -11L300 -33Q334 -35 352 -50T371 -91Q371
-135 339 -158T249 -182Q204 -182 167 -174L173 -125H244Q284 -125 284 -96Q284 -77 253 -77H220L238 -9Q144 3 95 68T45 250Q45 364 76 466T177 633T353 698Q464 698 526 634T589 444V431H459Z" />
<glyph unicode="&#xc8;" glyph-name="Egrave" horiz-adv-x="547" d="M124 686H556L540 572H235L212 408H474L458 294H196L170 114H482L466 0H28L124 686ZM229 850L230 853H350L422 751H323L229 850Z" />
<glyph unicode="&#xc9;" glyph-name="Eacute" horiz-adv-x="547" d="M124 686H556L540 572H235L212 408H474L458 294H196L170 114H482L466 0H28L124 686ZM359 853H489L490 850L388 751H279L359 853Z" />
<glyph unicode="&#xca;" glyph-name="Ecircumflex" horiz-adv-x="547" d="M124 686H556L540 572H235L212 408H474L458 294H196L170 114H482L466 0H28L124 686ZM318 853H416L487 748H399L360 787L310 748H218L318 853Z" />
<glyph unicode="&#xcb;" glyph-name="Edieresis" horiz-adv-x="547" d="M124 686H556L540 572H235L212 408H474L458 294H196L170 114H482L466 0H28L124 686ZM234 883H334L318 774H218L234 883ZM409 883H509L493 774H393L409 883Z" />
<glyph unicode="&#xcc;" glyph-name="Igrave" horiz-adv-x="228" d="M114 686H241L145 0H18L114 686ZM63 850L64 853H184L256 751H157L63 850Z" />
<glyph unicode="&#xcd;" glyph-name="Iacute" horiz-adv-x="228" d="M114 686H241L145 0H18L114 686ZM193 853H323L324 850L222 751H113L193 853Z" />
<glyph unicode="&#xce;" glyph-name="Icircumflex" horiz-adv-x="228" d="M114 686H241L145 0H18L114 686ZM152 853H250L321 748H233L194 787L144 748H52L152 853Z" />
<glyph unicode="&#xcf;" glyph-name="Idieresis" horiz-adv-x="228" d="M114 686H241L145 0H18L114 686ZM68 883H168L152 774H52L68 883ZM243 883H343L327 774H227L243 883Z" />
<glyph unicode="&#xd0;" glyph-name="Eth" horiz-adv-x="592" d="M71 312H23L34 397H83L124 686H335Q451 686 513 620T576 426Q576 324 544 227T441 65T264 0H28L71 312ZM253 114Q324 114 367 161T429 278T447 417Q447 493 413 532T317 572H235L210 397H334L322
312H198L171 114H253Z" />
<glyph unicode="&#xd1;" glyph-name="Ntilde" horiz-adv-x="592" d="M124 686H236L393 308Q400 292 415 244L418 247L425 304L478 686H591L495 0H382L225 378Q219 391 203 442L199 439Q196 399 193 382L140 0H28L124 686ZM222 800T249 828T320 857Q339 857 353
853T386 839Q414 824 435 824Q465 824 476 857H535Q528 804 501 776T430 747Q411 747 397 751T364 765Q336 780 315 780Q285 780 274 747H215Q222 800 249 828Z" />
<glyph unicode="&#xd2;" glyph-name="Ograve" horiz-adv-x="638" d="M173 -12T107 53T41 250Q41 360 74 462T179 631T364 698Q487 698 553 633T619 435Q619 326 586 224T479 55T295 -12Q173 -12 107 53ZM365 98T409 151T471 279T489 430Q489 506 459 547T369 588Q294
588 250 535T188 407T170 255Q170 179 200 139T290 98Q365 98 409 151ZM268 850L269 853H389L461 751H362L268 850Z" />
<glyph unicode="&#xd3;" glyph-name="Oacute" horiz-adv-x="638" d="M173 -12T107 53T41 250Q41 360 74 462T179 631T364 698Q487 698 553 633T619 435Q619 326 586 224T479 55T295 -12Q173 -12 107 53ZM365 98T409 151T471 279T489 430Q489 506 459 547T369 588Q294
588 250 535T188 407T170 255Q170 179 200 139T290 98Q365 98 409 151ZM398 853H528L529 850L427 751H318L398 853Z" />
<glyph unicode="&#xd4;" glyph-name="Ocircumflex" horiz-adv-x="638" d="M173 -12T107 53T41 250Q41 360 74 462T179 631T364 698Q487 698 553 633T619 435Q619 326 586 224T479 55T295 -12Q173 -12 107 53ZM365 98T409 151T471 279T489 430Q489 506 459 547T369
588Q294 588 250 535T188 407T170 255Q170 179 200 139T290 98Q365 98 409 151ZM357 853H455L526 748H438L399 787L349 748H257L357 853Z" />
<glyph unicode="&#xd5;" glyph-name="Otilde" horiz-adv-x="638" d="M173 -12T107 53T41 250Q41 360 74 462T179 631T364 698Q487 698 553 633T619 435Q619 326 586 224T479 55T295 -12Q173 -12 107 53ZM365 98T409 151T471 279T489 430Q489 506 459 547T369 588Q294
588 250 535T188 407T170 255Q170 179 200 139T290 98Q365 98 409 151ZM246 800T273 828T344 857Q363 857 377 853T410 839Q438 824 459 824Q489 824 500 857H559Q552 804 525 776T454 747Q435 747 421 751T388 765Q360 780 339 780Q309 780 298 747H239Q246 800
273 828Z" />
<glyph unicode="&#xd6;" glyph-name="Odieresis" horiz-adv-x="638" d="M173 -12T107 53T41 250Q41 360 74 462T179 631T364 698Q487 698 553 633T619 435Q619 326 586 224T479 55T295 -12Q173 -12 107 53ZM365 98T409 151T471 279T489 430Q489 506 459 547T369
588Q294 588 250 535T188 407T170 255Q170 179 200 139T290 98Q365 98 409 151ZM273 883H373L357 774H257L273 883ZM448 883H548L532 774H432L448 883Z" />
<glyph unicode="&#xd7;" glyph-name="multiply" horiz-adv-x="479" d="M6 111L172 256L47 402L129 474L254 328L420 474L482 402L315 256L441 111L359 39L233 185L68 39L6 111Z" />
<glyph unicode="&#xd8;" glyph-name="Oslash" horiz-adv-x="638" d="M559 625Q619 559 619 435Q619 326 586 224T479 55T295 -12Q219 -12 162 14L129 -37H45L105 55Q41 122 41 250Q41 360 74 462T179 631T364 698Q446 698 504 668L539 723H623L559 625ZM170 208T182
173L438 568Q410 588 369 588Q294 588 250 535T188 407T170 255Q170 208 182 173ZM489 472T480 503L227 114Q252 98 290 98Q365 98 409 151T471 279T489 430Q489 472 480 503Z" />
<glyph unicode="&#xd9;" glyph-name="Ugrave" horiz-adv-x="592" d="M175 -12T117 36T59 176Q59 221 127 686H254Q187 226 187 199Q187 150 211 124T282 98Q332 98 362 131T402 227L466 686H593L528 223Q512 108 448 48T282 -12Q175 -12 117 36ZM244 850L245 853H365L437
751H338L244 850Z" />
<glyph unicode="&#xda;" glyph-name="Uacute" horiz-adv-x="592" d="M175 -12T117 36T59 176Q59 221 127 686H254Q187 226 187 199Q187 150 211 124T282 98Q332 98 362 131T402 227L466 686H593L528 223Q512 108 448 48T282 -12Q175 -12 117 36ZM374 853H504L505
850L403 751H294L374 853Z" />
<glyph unicode="&#xdb;" glyph-name="Ucircumflex" horiz-adv-x="592" d="M175 -12T117 36T59 176Q59 221 127 686H254Q187 226 187 199Q187 150 211 124T282 98Q332 98 362 131T402 227L466 686H593L528 223Q512 108 448 48T282 -12Q175 -12 117 36ZM333 853H431L502
748H414L375 787L325 748H233L333 853Z" />
<glyph unicode="&#xdc;" glyph-name="Udieresis" horiz-adv-x="592" d="M175 -12T117 36T59 176Q59 221 127 686H254Q187 226 187 199Q187 150 211 124T282 98Q332 98 362 131T402 227L466 686H593L528 223Q512 108 448 48T282 -12Q175 -12 117 36ZM249 883H349L333
774H233L249 883ZM424 883H524L508 774H408L424 883Z" />
<glyph unicode="&#xdd;" glyph-name="Yacute" horiz-adv-x="547" d="M215 259L67 686H197L296 385H300L479 686H608L342 259L305 0H179L215 259ZM355 853H485L486 850L384 751H275L355 853Z" />
<glyph unicode="&#xde;" glyph-name="Thorn" horiz-adv-x="547" d="M124 686H251L234 562H344Q438 562 486 514T535 385Q535 314 505 259T423 173T306 142H175L155 0H28L124 686ZM299 255Q346 255 375 284T404 365Q404 403 382 425T321 448H218L191 255H299Z" />
<glyph unicode="&#xdf;" glyph-name="germandbls" horiz-adv-x="501" d="M88 520Q103 629 165 682T319 735Q402 735 452 691T502 569Q502 514 469 464T384 395V391Q426 374 451 330T476 230Q476 173 447 120T368 34T256 0H182L196 102H247Q274 102 299 119T339
166T355 228Q355 269 333 296T278 324H226L242 437H291Q312 437 333 454T367 500T380 560Q380 594 363 614T311 634Q270 634 243 606T208 528L134 0H17L88 520Z" />
<glyph unicode="&#xe0;" glyph-name="agrave" horiz-adv-x="456" d="M96 -12T59 35T22 174Q22 295 50 377T123 498T221 538Q301 538 331 463L351 526H444Q382 127 382 117Q382 89 406 89H424L412 4Q385 -12 353 -12Q320 -12 299 6T270 58Q252 23 223 6T164 -12Q96
-12 59 35ZM233 91T256 133T288 233T297 338Q297 387 285 411T244 435Q206 435 183 390T151 288T141 190Q141 91 195 91Q233 91 256 133ZM143 720L144 723H264L332 591H233L143 720Z" />
<glyph unicode="&#xe1;" glyph-name="aacute" horiz-adv-x="456" d="M96 -12T59 35T22 174Q22 295 50 377T123 498T221 538Q301 538 331 463L351 526H444Q382 127 382 117Q382 89 406 89H424L412 4Q385 -12 353 -12Q320 -12 299 6T270 58Q252 23 223 6T164 -12Q96
-12 59 35ZM233 91T256 133T288 233T297 338Q297 387 285 411T244 435Q206 435 183 390T151 288T141 190Q141 91 195 91Q233 91 256 133ZM298 723H418L419 720L293 591H194L298 723Z" />
<glyph unicode="&#xe2;" glyph-name="acircumflex" horiz-adv-x="456" d="M96 -12T59 35T22 174Q22 295 50 377T123 498T221 538Q301 538 331 463L351 526H444Q382 127 382 117Q382 89 406 89H424L412 4Q385 -12 353 -12Q320 -12 299 6T270 58Q252 23 223 6T164
-12Q96 -12 59 35ZM233 91T256 133T288 233T297 338Q297 387 285 411T244 435Q206 435 183 390T151 288T141 190Q141 91 195 91Q233 91 256 133ZM232 723H330L397 588H309L274 657L220 588H128L232 723Z" />
<glyph unicode="&#xe3;" glyph-name="atilde" horiz-adv-x="456" d="M96 -12T59 35T22 174Q22 295 50 377T123 498T221 538Q301 538 331 463L351 526H444Q382 127 382 117Q382 89 406 89H424L412 4Q385 -12 353 -12Q320 -12 299 6T270 58Q252 23 223 6T164 -12Q96
-12 59 35ZM233 91T256 133T288 233T297 338Q297 387 285 411T244 435Q206 435 183 390T151 288T141 190Q141 91 195 91Q233 91 256 133ZM103 653T136 688T212 723Q230 723 245 718T286 702Q300 696 314 691T339 686Q354 686 366 696T384 723H450Q443 671 410 636T333
601Q311 601 295 606T254 623Q242 629 230 633T207 638Q193 638 180 628T162 601H96Q103 653 136 688Z" />
<glyph unicode="&#xe4;" glyph-name="adieresis" horiz-adv-x="456" d="M96 -12T59 35T22 174Q22 295 50 377T123 498T221 538Q301 538 331 463L351 526H444Q382 127 382 117Q382 89 406 89H424L412 4Q385 -12 353 -12Q320 -12 299 6T270 58Q252 23 223 6T164
-12Q96 -12 59 35ZM233 91T256 133T288 233T297 338Q297 387 285 411T244 435Q206 435 183 390T151 288T141 190Q141 91 195 91Q233 91 256 133ZM144 723H244L228 614H128L144 723ZM319 723H419L403 614H303L319 723Z" />
<glyph unicode="&#xe5;" glyph-name="aring" horiz-adv-x="456" d="M96 -12T59 35T22 174Q22 295 50 377T123 498T221 538Q301 538 331 463L351 526H444Q382 127 382 117Q382 89 406 89H424L412 4Q385 -12 353 -12Q320 -12 299 6T270 58Q252 23 223 6T164 -12Q96
-12 59 35ZM233 91T256 133T288 233T297 338Q297 387 285 411T244 435Q206 435 183 390T151 288T141 190Q141 91 195 91Q233 91 256 133ZM223 561T199 584T175 643Q175 690 206 721T285 753Q321 753 345 729T369 670Q369 624 337 593T258 561Q223 561 199 584ZM287
611T302 626T318 664Q318 681 307 692T278 703Q255 703 240 688T225 650Q225 633 236 622T265 611Q287 611 302 626Z" />
<glyph unicode="&#xe6;" glyph-name="ae" horiz-adv-x="729" d="M104 -12T62 19T19 129Q19 231 99 275T307 320L313 375Q314 382 314 395Q314 416 304 428T268 440Q234 440 218 422T197 370H81Q81 446 135 492T279 538Q361 538 400 494Q454 538 530 538Q693 538
693 359Q693 291 682 233H419Q417 212 417 187Q417 135 430 110T472 85Q500 85 519 112T548 182H671Q627 -12 467 -12Q361 -12 321 57Q288 24 250 6T162 -12Q104 -12 62 19ZM570 320Q572 349 572 359Q572 400 561 420T523 441Q488 441 466 407T432 320H570ZM235
88T259 120T290 203L294 233Q230 233 187 211T144 134Q144 88 196 88Q235 88 259 120Z" />
<glyph unicode="&#xe7;" glyph-name="ccedilla" horiz-adv-x="456" d="M310 328V343Q310 391 299 414T260 437Q221 437 199 389T167 282T158 191Q158 138 169 114T212 89Q242 89 263 118T294 195H413Q393 103 347 48T215 -12L209 -33Q243 -36 261 -51T280 -91Q280
-135 248 -158T158 -182Q113 -182 76 -174L82 -125H153Q175 -125 184 -119T193 -96Q193 -86 186 -82T162 -77H129L148 -6Q36 20 36 172Q36 325 87 431T269 538Q354 538 393 491T432 343V328H310Z" />
<glyph unicode="&#xe8;" glyph-name="egrave" horiz-adv-x="456" d="M117 -12T75 33T33 172Q33 327 85 432T266 538Q429 538 429 359Q429 291 418 233H155Q153 212 153 187Q153 135 166 110T208 85Q236 85 255 112T284 182H407Q363 -12 203 -12Q117 -12 75 33ZM306
320Q308 349 308 359Q308 400 297 420T259 441Q224 441 202 407T168 320H306ZM154 720L155 723H275L343 591H244L154 720Z" />
<glyph unicode="&#xe9;" glyph-name="eacute" horiz-adv-x="456" d="M117 -12T75 33T33 172Q33 327 85 432T266 538Q429 538 429 359Q429 291 418 233H155Q153 212 153 187Q153 135 166 110T208 85Q236 85 255 112T284 182H407Q363 -12 203 -12Q117 -12 75 33ZM306
320Q308 349 308 359Q308 400 297 420T259 441Q224 441 202 407T168 320H306ZM309 723H429L430 720L304 591H205L309 723Z" />
<glyph unicode="&#xea;" glyph-name="ecircumflex" horiz-adv-x="456" d="M117 -12T75 33T33 172Q33 327 85 432T266 538Q429 538 429 359Q429 291 418 233H155Q153 212 153 187Q153 135 166 110T208 85Q236 85 255 112T284 182H407Q363 -12 203 -12Q117 -12 75
33ZM306 320Q308 349 308 359Q308 400 297 420T259 441Q224 441 202 407T168 320H306ZM243 723H341L408 588H320L285 657L231 588H139L243 723Z" />
<glyph unicode="&#xeb;" glyph-name="edieresis" horiz-adv-x="456" d="M117 -12T75 33T33 172Q33 327 85 432T266 538Q429 538 429 359Q429 291 418 233H155Q153 212 153 187Q153 135 166 110T208 85Q236 85 255 112T284 182H407Q363 -12 203 -12Q117 -12 75
33ZM306 320Q308 349 308 359Q308 400 297 420T259 441Q224 441 202 407T168 320H306ZM155 723H255L239 614H139L155 723ZM330 723H430L414 614H314L330 723Z" />
<glyph unicode="&#xec;" glyph-name="igrave" horiz-adv-x="228" d="M96 526H215L142 0H23L96 526ZM43 720L44 723H164L232 591H133L43 720Z" />
<glyph unicode="&#xed;" glyph-name="iacute" horiz-adv-x="228" d="M96 526H215L142 0H23L96 526ZM198 723H318L319 720L193 591H94L198 723Z" />
<glyph unicode="&#xee;" glyph-name="icircumflex" horiz-adv-x="228" d="M96 526H215L142 0H23L96 526ZM132 723H230L297 588H209L174 657L120 588H28L132 723Z" />
<glyph unicode="&#xef;" glyph-name="idieresis" horiz-adv-x="228" d="M96 526H215L142 0H23L96 526ZM44 723H144L128 614H28L44 723ZM219 723H319L303 614H203L219 723Z" />
<glyph unicode="&#xf0;" glyph-name="eth" horiz-adv-x="501" d="M126 -12T80 35T33 182Q33 294 63 374T143 496T253 538Q283 538 305 530L309 534Q300 559 280 595L151 584L161 657L236 664Q218 688 192 719L194 723H318Q341 700 361 675L492 687L482 614L406
607Q463 500 463 367Q463 176 399 82T219 -12Q126 -12 80 35ZM293 89T316 177T339 343Q339 437 272 437Q202 437 179 349T156 183Q156 136 172 113T223 89Q293 89 316 177Z" />
<glyph unicode="&#xf1;" glyph-name="ntilde" horiz-adv-x="501" d="M96 526H193V456Q248 538 336 538Q398 538 430 503T463 403Q463 391 460 368T450 293L410 0H292L330 279Q341 360 341 363Q341 398 328 413T283 429Q247 429 220 399T185 316L142 0H23L96 526ZM141
653T174 688T250 723Q268 723 283 718T324 702Q338 696 352 691T377 686Q392 686 404 696T422 723H488Q481 671 448 636T371 601Q349 601 333 606T292 623Q280 629 268 633T245 638Q231 638 218 628T200 601H134Q141 653 174 688Z" />
<glyph unicode="&#xf2;" glyph-name="ograve" horiz-adv-x="501" d="M36 -12T36 180Q36 325 90 431T279 538Q465 538 465 343Q465 198 411 93T222 -12Q36 -12 36 180ZM296 89T319 177T342 343Q342 437 275 437Q205 437 182 349T159 183Q159 136 175 113T226 89Q296
89 319 177ZM176 720L177 723H297L365 591H266L176 720Z" />
<glyph unicode="&#xf3;" glyph-name="oacute" horiz-adv-x="501" d="M36 -12T36 180Q36 325 90 431T279 538Q465 538 465 343Q465 198 411 93T222 -12Q36 -12 36 180ZM296 89T319 177T342 343Q342 437 275 437Q205 437 182 349T159 183Q159 136 175 113T226 89Q296
89 319 177ZM331 723H451L452 720L326 591H227L331 723Z" />
<glyph unicode="&#xf4;" glyph-name="ocircumflex" horiz-adv-x="501" d="M36 -12T36 180Q36 325 90 431T279 538Q465 538 465 343Q465 198 411 93T222 -12Q36 -12 36 180ZM296 89T319 177T342 343Q342 437 275 437Q205 437 182 349T159 183Q159 136 175 113T226
89Q296 89 319 177ZM265 723H363L430 588H342L307 657L253 588H161L265 723Z" />
<glyph unicode="&#xf5;" glyph-name="otilde" horiz-adv-x="501" d="M36 -12T36 180Q36 325 90 431T279 538Q465 538 465 343Q465 198 411 93T222 -12Q36 -12 36 180ZM296 89T319 177T342 343Q342 437 275 437Q205 437 182 349T159 183Q159 136 175 113T226 89Q296
89 319 177ZM136 653T169 688T245 723Q263 723 278 718T319 702Q333 696 347 691T372 686Q387 686 399 696T417 723H483Q476 671 443 636T366 601Q344 601 328 606T287 623Q275 629 263 633T240 638Q226 638 213 628T195 601H129Q136 653 169 688Z" />
<glyph unicode="&#xf6;" glyph-name="odieresis" horiz-adv-x="501" d="M36 -12T36 180Q36 325 90 431T279 538Q465 538 465 343Q465 198 411 93T222 -12Q36 -12 36 180ZM296 89T319 177T342 343Q342 437 275 437Q205 437 182 349T159 183Q159 136 175 113T226
89Q296 89 319 177ZM177 723H277L261 614H161L177 723ZM352 723H452L436 614H336L352 723Z" />
<glyph unicode="&#xf7;" glyph-name="divide" horiz-adv-x="549" d="M252 470H356L340 359H236L252 470ZM40 307H522L507 203H25L40 307ZM207 151H311L295 41H191L207 151Z" />
<glyph unicode="&#xf8;" glyph-name="oslash" horiz-adv-x="501" d="M422 485Q465 436 465 343Q465 198 411 93T222 -12Q170 -12 132 3L111 -32H36L79 39Q36 88 36 180Q36 325 90 431T279 538Q333 538 369 522L391 558H466L422 485ZM159 173L312 427Q298 437 275
437Q205 437 182 349T159 183V173ZM342 352L189 98Q204 89 226 89Q296 89 319 177T342 343V352Z" />
<glyph unicode="&#xf9;" glyph-name="ugrave" horiz-adv-x="501" d="M103 -12T71 23T38 123Q38 135 41 158T51 233L91 526H209L171 247Q160 166 160 163Q160 128 173 113T218 97Q254 97 281 127T316 210L359 526H478L405 0H307V68Q250 -12 165 -12Q103 -12 71
23ZM172 720L173 723H293L361 591H262L172 720Z" />
<glyph unicode="&#xfa;" glyph-name="uacute" horiz-adv-x="501" d="M103 -12T71 23T38 123Q38 135 41 158T51 233L91 526H209L171 247Q160 166 160 163Q160 128 173 113T218 97Q254 97 281 127T316 210L359 526H478L405 0H307V68Q250 -12 165 -12Q103 -12 71
23ZM327 723H447L448 720L322 591H223L327 723Z" />
<glyph unicode="&#xfb;" glyph-name="ucircumflex" horiz-adv-x="501" d="M103 -12T71 23T38 123Q38 135 41 158T51 233L91 526H209L171 247Q160 166 160 163Q160 128 173 113T218 97Q254 97 281 127T316 210L359 526H478L405 0H307V68Q250 -12 165 -12Q103 -12
71 23ZM261 723H359L426 588H338L303 657L249 588H157L261 723Z" />
<glyph unicode="&#xfc;" glyph-name="udieresis" horiz-adv-x="501" d="M103 -12T71 23T38 123Q38 135 41 158T51 233L91 526H209L171 247Q160 166 160 163Q160 128 173 113T218 97Q254 97 281 127T316 210L359 526H478L405 0H307V68Q250 -12 165 -12Q103 -12
71 23ZM173 723H273L257 614H157L173 723ZM348 723H448L432 614H332L348 723Z" />
<glyph unicode="&#xfd;" glyph-name="yacute" horiz-adv-x="456" d="M37 -182T15 -179T-7 -173L4 -81H58Q85 -81 109 -61T149 0L49 526H169L213 279Q220 241 227 142H231Q258 235 275 278L374 526H492L281 27Q239 -70 188 -126T68 -182Q37 -182 15 -179ZM316 723H436L437
720L311 591H212L316 723Z" />
<glyph unicode="&#xfe;" glyph-name="thorn" horiz-adv-x="501" d="M123 723H242L207 471Q255 538 325 538Q393 538 430 491T468 352Q468 231 439 149T363 28T262 -12Q183 -12 150 57L118 -172H0L123 723ZM300 97T323 176T347 340Q347 385 333 407T284 429Q241
429 216 388T182 291T172 188Q172 143 187 120T237 97Q300 97 323 176Z" />
<glyph unicode="&#xff;" glyph-name="ydieresis" horiz-adv-x="456" d="M37 -182T15 -179T-7 -173L4 -81H58Q85 -81 109 -61T149 0L49 526H169L213 279Q220 241 227 142H231Q258 235 275 278L374 526H492L281 27Q239 -70 188 -126T68 -182Q37 -182 15 -179ZM162
723H262L246 614H146L162 723ZM337 723H437L421 614H321L337 723Z" />
<glyph unicode="&#x2013;" glyph-name="endash" horiz-adv-x="456" d="M11 319H467L454 221H-1L11 319Z" />
<glyph unicode="&#x2014;" glyph-name="emdash" horiz-adv-x="820" d="M8 319H827L814 221H-4L8 319Z" />
<glyph unicode="&#x2018;" glyph-name="quoteleft" horiz-adv-x="228" d="M81 518L171 686H243L170 530H221L202 393H64L81 518Z" />
<glyph unicode="&#x2019;" glyph-name="quoteright" horiz-adv-x="228" d="M143 549H92L111 686H249L232 561L142 393H70L143 549Z" />
<glyph unicode="&#x201a;" glyph-name="quotesinglbase" horiz-adv-x="228" d="M67 0H16L35 137H173L156 12L66 -156H-6L67 0Z" />
<glyph unicode="&#x201c;" glyph-name="quotedblleft" horiz-adv-x="410" d="M73 518L163 686H235L162 530H213L194 393H56L73 518ZM256 518L346 686H418L345 530H396L377 393H239L256 518Z" />
<glyph unicode="&#x201d;" glyph-name="quotedblright" horiz-adv-x="410" d="M143 549H92L111 686H249L232 561L142 393H70L143 549ZM326 549H275L294 686H432L415 561L325 393H253L326 549Z" />
<glyph unicode="&#x201e;" glyph-name="quotedblbase" horiz-adv-x="410" d="M67 0H16L35 137H173L156 12L66 -156H-6L67 0ZM250 0H199L218 137H356L339 12L249 -156H177L250 0Z" />
<glyph unicode="&#x2022;" glyph-name="bullet" horiz-adv-x="287" d="M121 220T94 237T50 282T34 344Q34 395 69 431T154 467Q204 467 239 431T275 344Q275 311 259 283T215 237T154 220Q121 220 94 237Z" />
<glyph unicode="&#x2039;" glyph-name="guilsinglleft" horiz-adv-x="273" d="M32 326L192 526H287L151 326L230 126H139L32 326Z" />
<glyph unicode="&#x203a;" glyph-name="guilsinglright" horiz-adv-x="273" d="M148 326L68 526H159L267 326L106 126H12L148 326Z" />
</font>
</defs>
</svg>
